<svg width="32" height="32" viewBox="0 0 32 32" fill="none" xmlns="http://www.w3.org/2000/svg">
<path d="M17.962 6.05087L19.8054 3.593C19.6498 3.45981 19.4849 3.33782 19.3121 3.22793C18.1591 2.49677 16.8087 2.13913 15.445 2.2038C14.0813 2.26847 12.7707 2.75232 11.6921 3.58931L13.5484 6.06431C14.9865 5.62734 16.5213 5.62267 17.962 6.05087Z" fill="black"/>
<path d="M11.0926 10.4338C11.7039 11.3229 12.2941 12.24 12.8539 13.1681C13.5691 12.0316 14.3307 10.9149 15.1267 9.8355L12.9688 6.95837L12.968 6.95725L11.0001 4.33337L10.9872 4.3505C10.3484 5.20586 10.0023 6.24427 10.0001 7.31181C9.99884 8.31045 10.3019 9.28577 10.8688 10.1079L11.0926 10.4338Z" fill="black"/>
<path d="M20.6316 10.1079C21.1985 9.28571 21.5014 8.31041 21.5001 7.3118C21.4979 6.24426 21.1517 5.20585 20.513 4.35049C20.5087 4.3448 20.5041 4.33943 20.4998 4.33374L16.1853 10.0864C15.1519 11.4642 14.1742 12.9088 13.2791 14.3801C13.2778 14.3823 13.2771 14.3846 13.2758 14.3867C11.738 16.9163 10.4122 19.5688 9.31183 22.317L8.07983 25.3969L11.7973 29.5273L13.6146 24.075C15.2287 19.2321 17.5154 14.6402 20.4076 10.4337L20.6316 10.1079Z" fill="black"/>
<path d="M22.1883 22.3169C21.2617 20.0008 20.0201 17.4732 18.6616 15.1295C17.7942 16.6753 17.0051 18.2612 16.2944 19.8871C16.8798 21.2566 17.4151 22.6642 17.8854 24.0753L19.7028 29.5274L23.4202 25.3969L22.1883 22.3169Z" fill="black"/>
</svg>
